HIERARCHY
ROOT Hips
{
  OFFSET 0.382225 96.6805 0.598322
  CHANNELS 6 Xposition Yposition Zposition Zrotation Xrotation Yrotation
  JOINT Spine
  {
    OFFSET 10.8089 -0.851416 0
    CHANNELS 3 Zrotation Xrotation Yrotation
    JOINT Spine1
    {
      OFFSET 18.8753 3.80116 0
      CHANNELS 3 Zrotation Xrotation Yrotation
      JOINT Spine2
      {
        OFFSET 13.4073 0.420477 0
        CHANNELS 3 Zrotation Xrotation Yrotation
        JOINT LeftShoulder
        {
          OFFSET 11.8837 -2.73209 -3.78198
          CHANNELS 3 Zrotation Xrotation Yrotation
          JOINT LeftArm
          {
            OFFSET 15.7849 0 -2.35849e-005
            CHANNELS 3 Zrotation Xrotation Yrotation
            JOINT LeftForeArm
            {
              OFFSET 30.3399 0 0
              CHANNELS 3 Zrotation Xrotation Yrotation
              JOINT LeftHand
              {
                OFFSET 26.9751 0 2.45913e-005
                CHANNELS 3 Zrotation Xrotation Yrotation
                End Site
                {
                  OFFSET 8 0 0
                }
              }
            }
          }
        }
        JOINT RightShoulder
        {
          OFFSET 11.8838 -2.7321 3.782
          CHANNELS 3 Zrotation Xrotation Yrotation
          JOINT RightArm
          {
            OFFSET -15.7848 0 -1.07056e-005
            CHANNELS 3 Zrotation Xrotation Yrotation
            JOINT RightForeArm
            {
              OFFSET -30.34 1.02096e-005 -2.53607e-005
              CHANNELS 3 Zrotation Xrotation Yrotation
              JOINT RightHand
              {
                OFFSET -26.9752 2.07668e-005 0
                CHANNELS 3 Zrotation Xrotation Yrotation
                End Site
                {
                  OFFSET -8 0 0
                }
              }
            }
          }
        }
        JOINT Neck
        {
          OFFSET 16.5588 -0.355318 0
          CHANNELS 3 Zrotation Xrotation Yrotation
          JOINT Head
          {
            OFFSET 9.28361 0.364157 0
            CHANNELS 3 Zrotation Xrotation Yrotation
            End Site
            {
              OFFSET 0 0 0
            }
          }
        }
      }
    }
  }
  JOINT LeftUpLeg
  {
    OFFSET -1.44883 -0.531424 -9.00581
    CHANNELS 3 Zrotation Xrotation Yrotation
    JOINT LeftLeg
    {
      OFFSET -42.572 0.0788889 -0.011964
      CHANNELS 3 Zrotation Xrotation Yrotation
      JOINT LeftFoot
      {
        OFFSET -40.1967 0 0
        CHANNELS 3 Zrotation Xrotation Yrotation
				JOINT LeftToe
        {
          OFFSET -10.4538 -16.5779 0.0801563
          CHANNELS 3 Zrotation Xrotation Yrotation
          End Site
          {
            OFFSET -1.0 -1.0 0.0
          }
        }
      }
    }
  }
  JOINT RightUpLeg
  {
    OFFSET -1.44865 -0.531427 9.0058
    CHANNELS 3 Zrotation Xrotation Yrotation
    JOINT RightLeg
    {
      OFFSET 42.5723 -3.24776e-005 0
      CHANNELS 3 Zrotation Xrotation Yrotation
      JOINT RightFoot
      {
        OFFSET 40.1968 0 -1.14003e-005
        CHANNELS 3 Zrotation Xrotation Yrotation
				JOINT RightToe
        {
          OFFSET 10.4538 16.5778 -0.0801573
          CHANNELS 3 Zrotation Xrotation Yrotation
          End Site
          {
            OFFSET -1.0 -1.0 0.0
          }
        }
      }
    }
  }
}
MOTION
Frames:	20
Frame Time:	0.0333333
74.4459 96.3142 3.48528 -73.6389 -86.0501 -162.253 -8.53105 1.16009 0.138904 20.8503 -0.369212 -0.633171 2.7794 1.93418e-006 1.65929e-005 -2.48967 11.6128 81.6016 -12.5893 20.7316 1.40091 1.85284 -15.0675 8.54274 -147.113 -77.1658 -146.558 -176.892 7.69953 74.2877 -18.3305 -4.228 7.53719 0.00809289 -1.3483 0.135136 -69.5388 -83.6142 -65.8948 -23.508 4.63459e-006 -5.90926e-006 13.01 -12.0152 6.62141 19.5269 44.979 -23.601 -12.1167 -5.8809 1.24101 4.32531 -28.2434 16.9272 -90 0 0 -165.068 30.8791 -12.933 -20.3385 -5.3041 -0.164975 14.1972 -29.0222 2.94872 -90 0 0
74.3953 96.2989 3.42469 -74.9786 -86.052 -163.566 -8.64372 1.20009 0.125182 20.8167 -0.367205 -0.630159 2.7794 1.93418e-006 1.65929e-005 -2.48577 11.6659 81.5853 -12.6387 20.5462 1.31365 1.84357 -15.0676 8.53812 -147.269 -77.4782 -146.66 -176.903 7.75558 74.3438 -18.3634 -4.31114 7.50633 0.00779641 -1.1833 0.139397 -71.8795 -83.739 -68.3114 -23.508 4.63459e-006 -5.90926e-006 13.0917 -12.1045 6.67749 19.6098 44.9558 -23.737 -12.2339 -5.88018 1.22662 4.35232 -28.2465 16.9378 -90 0 0 -165.163 30.8382 -12.8575 -20.3587 -5.30308 -0.167818 14.2429 -29.0055 2.95529 -90 0 0
74.3378 96.2796 3.35766 -76.8587 -86.0429 -165.425 -8.76912 1.23495 0.124717 20.7249 -0.361713 -0.62187 2.7794 1.93418e-006 1.65929e-005 -2.48867 11.6502 81.6094 -12.5837 20.751 1.19085 1.88057 -15.0668 8.55615 -147.053 -77.2842 -146.538 -176.921 7.76931 74.4149 -18.3812 -4.33921 7.50216 0.00698506 -0.790696 0.149485 -74.6113 -84.0072 -71.0261 -23.508 4.63459e-006 -5.90926e-006 13.2162 -12.1666 6.68178 19.6892 45.0016 -23.8968 -12.3405 -5.8799 1.21367 4.35493 -28.2851 16.9265 -90 0 0 -165.247 30.8173 -12.7972 -20.4225 -5.29971 -0.17657 14.2823 -29.0346 2.9144 -90 0 0
74.2761 96.2626 3.27904 -78.7245 -86.047 -167.271 -8.93855 1.22969 0.118219 20.6332 -0.356255 -0.613611 2.7794 1.93418e-006 1.65929e-005 -2.49025 11.6485 81.6164 -12.5458 20.9287 1.10312 1.9584 -15.0651 8.59391 -147.645 -77.2292 -146.99 -176.936 7.76872 74.4758 -18.4161 -4.48928 7.52699 0.00531312 -0.133396 0.166389 -81.2772 -84.2718 -77.7767 -23.508 4.63459e-006 -5.90926e-006 13.4013 -12.1814 6.66156 19.7751 45.0387 -24.0554 -12.4486 -5.87973 1.2003 4.34021 -28.3559 16.8709 -90 0 0 -165.303 30.8378 -12.756 -20.5147 -5.295 -0.189359 14.3355 -29.0826 2.89149 -90 0 0
74.2154 96.2456 3.19985 -80.6072 -86.061 -169.132 -9.09565 1.18568 0.0987552 20.5298 -0.350094 -0.60428 2.7794 1.93418e-006 1.65929e-005 -2.48529 11.6508 81.5768 -12.5281 20.9014 1.09067 1.98635 -15.0644 8.60738 -147.814 -77.388 -147.212 -176.951 7.74923 74.5344 -18.4754 -4.56117 7.54434 0.00378057 0.366605 0.179272 -85.9493 -84.5313 -82.5872 -23.508 4.63459e-006 -5.90926e-006 13.5542 -12.2 6.64499 19.8102 45.0453 -24.1784 -12.5127 -5.87965 1.19252 4.30796 -28.3869 16.8328 -90 0 0 -165.368 30.8235 -12.7069 -20.6151 -5.29068 -0.203129 14.3469 -29.0751 2.91101 -90 0 0
74.158 96.231 3.11792 -82.2759 -86.0777 -170.776 -9.26665 1.15023 0.0762465 20.4647 -0.346241 -0.598396 2.7794 1.93418e-006 1.65929e-005 -2.48866 11.6133 81.5968 -12.4979 20.9536 1.02546 1.99728 -15.0639 8.61251 -146.804 -77.407 -146.314 -176.964 7.75737 74.5863 -18.5485 -4.57608 7.54218 0.00244184 0.753061 0.189095 -88.709 -84.6531 -85.3594 -23.508 4.63459e-006 -5.90926e-006 13.6536 -12.22 6.58071 19.8392 45.0694 -24.2982 -12.5194 -5.87964 1.19199 4.28805 -28.4312 16.8968 -90 0 0 -165.421 30.7701 -12.6396 -20.7392 -5.2839 -0.220177 14.4026 -29.0319 2.8327 -90 0 0
74.1044 96.2219 3.02714 -83.1001 -86.0954 -171.573 -9.3699 1.1115 0.033272 20.407 -0.342381 -0.593175 2.7794 1.93418e-006 1.65929e-005 -2.48896 11.5934 81.5924 -12.5324 20.997 1.02877 1.97995 -15.064 8.6043 -147.061 -77.3948 -146.516 -176.972 7.76292 74.6233 -18.6191 -4.6533 7.50229 0.00147555 1.00985 0.195635 -90.1386 -84.7019 -86.793 -23.508 4.63459e-006 -5.90926e-006 13.6994 -12.2425 6.54403 19.984 45.0762 -24.437 -12.6034 -5.87972 1.18151 4.25428 -28.4984 16.8391 -90 0 0 -165.428 30.7003 -12.563 -20.8357 -5.27889 -0.233306 14.3831 -28.9738 2.76292 -90 0 0
74.054 96.2207 2.94175 -83.785 -86.1251 -172.238 -9.46335 1.06487 -0.000128494 20.3491 -0.339403 -0.587941 2.7794 1.93418e-006 1.65929e-005 -2.48706 11.5475 81.5595 -12.5885 20.9869 1.06426 1.93611 -15.0645 8.58311 -146.577 -77.4276 -146.203 -176.977 7.81223 74.6447 -18.7418 -4.5453 7.44146 0.00160104 0.975361 0.194736 -86.7497 -84.6735 -83.3777 -23.508 4.63459e-006 -5.90926e-006 13.7057 -12.2442 6.46216 20.0536 45.0472 -24.5148 -12.6099 -5.87982 1.18075 4.18349 -28.5334 16.8245 -90 0 0 -165.439 30.6844 -12.5123 -20.872 -5.27637 -0.238222 14.2641 -28.8633 2.91952 -90 0 0
74.0028 96.221 2.86256 -83.8624 -86.134 -172.283 -9.4924 1.01956 -0.0575933 20.2925 -0.337793 -0.582819 2.7794 1.93418e-006 1.65929e-005 -2.48757 11.5483 81.5723 -12.6435 21.2312 1.01301 1.83731 -15.0661 8.53516 -145.246 -77.4538 -145.203 -176.975 7.81521 74.6424 -18.81 -4.52051 7.39083 0.00209635 0.840547 0.191372 -86.0285 -84.5715 -82.5698 -23.508 4.63459e-006 -5.90926e-006 13.6845 -12.1883 6.36558 20.1869 45.0234 -24.6172 -12.6324 -5.87996 1.17778 4.11648 -28.5578 16.7739 -90 0 0 -165.439 30.7196 -12.4275 -20.8768 -5.27456 -0.239634 14.3719 -28.9688 2.65334 -90 0 0
73.9536 96.2222 2.78106 -83.606 -86.1423 -171.99 -9.49854 0.972468 -0.109676 20.2623 -0.336667 -0.57681 2.7794 1.93418e-006 1.65929e-005 -2.48677 11.5188 81.5476 -12.6938 21.1681 0.97291 1.76398 -15.0672 8.49978 -143.391 -77.5527 -143.676 -176.962 7.81437 74.5878 -18.8505 -4.54619 7.41351 0.00323696 0.516034 0.183114 -83.5246 -84.4535 -80.0492 -23.508 4.63459e-006 -5.90926e-006 13.5975 -12.135 6.30173 20.3217 44.9866 -24.7077 -12.6291 -5.88011 1.178 4.04887 -28.5651 16.7392 -90 0 0 -165.415 30.77 -12.355 -20.862 -5.27334 -0.239525 14.3085 -29.0077 2.62306 -90 0 0
73.9036 96.2234 2.71368 -83.6859 -86.0848 -172.041 -9.47232 1.00704 -0.122975 20.1838 -0.335968 -0.572966 2.7794 1.93418e-006 1.65929e-005 -2.48466 11.478 81.5159 -12.7049 21.1648 0.870359 1.6608 -15.0688 8.44983 -143.693 -77.4156 -144.042 -176.923 7.84805 74.4281 -18.94 -4.6775 7.5704 0.00339459 0.468002 0.179704 -83.2077 -84.4572 -79.7273 -23.508 4.63459e-006 -5.90926e-006 13.5515 -12.0961 6.14597 20.4033 45.0373 -24.8009 -12.5578 -5.88023 1.18706 3.96819 -28.564 16.7771 -90 0 0 -165.418 30.7413 -12.2658 -20.8479 -5.27258 -0.238578 14.3065 -29.0199 2.62121 -90 0 0
73.8636 96.2251 2.64881 -83.7311 -85.9749 -172.064 -9.52006 0.982094 -0.152062 20.2228 -0.335635 -0.576505 2.7794 1.93418e-006 1.65929e-005 -2.47455 11.5622 81.4449 -12.7098 21.0513 0.768485 1.58879 -15.07 8.41477 -142.407 -77.5852 -142.905 -176.88 7.74584 74.2418 -19.0489 -4.83588 7.75533 0.00277973 0.66102 0.177874 -85.8698 -84.5013 -82.4486 -23.508 4.63459e-006 -5.90926e-006 13.5378 -11.9346 6.02909 20.4914 45.1093 -24.8935 -12.5086 -5.88035 1.1931 3.90762 -28.5545 16.7596 -90 0 0 -165.376 30.6863 -12.204 -20.8477 -5.27216 -0.237474 14.1322 -28.9886 2.81521 -90 0 0
73.8191 96.2309 2.5874 -83.6084 -85.8797 -171.902 -9.53711 1.00828 -0.177729 20.2589 -0.33561 -0.57978 2.7794 1.93418e-006 1.65929e-005 -2.46851 11.495 81.3617 -12.5544 21.2531 0.673624 1.46124 -15.0722 8.35311 -143.125 -77.481 -143.531 -176.847 7.68631 74.1013 -19.1037 -5.03845 7.85642 0.00220335 0.837246 0.177264 -88.6842 -84.4794 -85.3524 -23.508 4.63459e-006 -5.90926e-006 13.5206 -11.8374 5.92629 20.6433 45.1567 -25.0272 -12.5207 -5.88058 1.19424 3.85737 -28.5412 16.7076 -90 0 0 -165.355 30.6439 -12.0969 -20.8566 -5.27196 -0.236898 14.2002 -29.0858 2.62289 -90 0 0
73.7774 96.2365 2.52918 -83.8236 -85.7994 -172.089 -9.58153 1.057 -0.192113 20.2763 -0.335833 -0.581485 2.7794 1.93418e-006 1.65929e-005 -2.45286 11.4188 81.1846 -12.5616 21.0492 0.717594 1.55565 -15.0705 8.39882 -144.78 -77.705 -145.002 -176.816 7.582 73.9689 -19.0111 -5.12484 7.91725 0.00231046 0.786457 0.17751 -90.546 -84.4273 -87.15 -23.508 4.63459e-006 -5.90926e-006 13.59 -11.8473 5.85052 20.7335 45.1853 -25.1224 -12.5188 -5.88105 1.19311 3.78888 -28.5165 16.6542 -90 0 0 -165.345 30.5742 -12.0199 -20.8665 -5.27184 -0.237531 14.0619 -29.0237 2.78252 -90 0 0
73.7362 96.2418 2.47438 -84.5284 -85.7592 -172.772 -9.67914 1.07361 -0.210667 20.2737 -0.336247 -0.58242 2.7794 1.93418e-006 1.65929e-005 -2.43818 11.3544 81.017 -12.5519 20.9845 0.756342 1.59424 -15.0698 8.4176 -146.278 -78.0258 -146.404 -176.792 7.53236 73.8566 -19.0406 -5.26821 7.92566 0.00203989 0.852143 0.178272 -89.1712 -84.499 -85.7696 -23.508 4.63459e-006 -5.90926e-006 13.7266 -11.8451 5.83367 20.7753 45.2057 -25.2036 -12.5102 -5.8817 1.19198 3.72634 -28.5073 16.6236 -90 0 0 -165.367 30.5466 -11.9581 -20.8891 -5.27169 -0.240576 13.9863 -29.0337 2.76721 -90 0 0
73.697 96.2421 2.41046 -85.1322 -85.7476 -173.341 -9.81465 1.05018 -0.254241 20.305 -0.336792 -0.583653 2.7794 1.93418e-006 1.65929e-005 -2.42598 11.316 80.8788 -12.5652 21.122 0.771076 1.70021 -15.0681 8.46886 -148.07 -78.1598 -148.187 -176.77 7.46459 73.7609 -19.1013 -5.16878 7.91825 0.00206175 0.819809 0.179186 -89.9717 -84.5087 -86.5775 -23.508 4.63459e-006 -5.90926e-006 13.8516 -11.8014 5.82159 20.8664 45.245 -25.3217 -12.5069 -5.88249 1.19311 3.67006 -28.5686 16.5953 -90 0 0 -165.385 30.4873 -11.865 -20.9646 -5.27138 -0.250731 14.0669 -29.0668 2.46081 -90 0 0
73.6702 96.243 2.36105 -85.2812 -85.7314 -173.464 -9.87855 1.02503 -0.30088 20.3305 -0.338299 -0.586253 2.7794 1.93418e-006 1.65929e-005 -2.41907 11.2715 80.7829 -12.5469 21.1966 0.778535 1.79713 -15.0666 8.51575 -151.968 -78.385 -151.721 -176.748 7.40066 73.6571 -19.146 -5.09592 7.94329 0.00268657 0.593265 0.179897 -87.7887 -84.4101 -84.357 -23.508 4.63459e-006 -5.90926e-006 13.8691 -11.7366 5.79056 20.916 45.2708 -25.3798 -12.4593 -5.88338 1.19914 3.62083 -28.5849 16.575 -90 0 0 -165.373 30.4334 -11.8054 -21.0051 -5.27126 -0.256426 14.0178 -29.0056 2.47415 -90 0 0
73.6393 96.2491 2.32079 -85.0313 -85.704 -173.191 -9.89741 1.0685 -0.317155 20.3931 -0.340551 -0.591914 2.7794 1.93418e-006 1.65929e-005 -2.41321 11.1926 80.6881 -12.5808 21.1671 0.82521 1.77227 -15.0674 8.50372 -154.121 -79.1401 -153.901 -176.741 7.36379 73.6212 -19.1357 -5.0632 7.91963 0.00320528 0.399776 0.18006 -85.3687 -84.3712 -81.8633 -23.508 4.63459e-006 -5.90926e-006 13.7353 -11.7381 5.74421 20.9684 45.2906 -25.4284 -12.386 -5.88433 1.20814 3.56722 -28.5819 16.6017 -90 0 0 -165.341 30.3935 -11.748 -21.0258 -5.27163 -0.258145 13.9626 -28.9908 2.4635 -90 0 0
73.6067 96.2579 2.29029 -84.6443 -85.6789 -172.775 -9.89412 1.08889 -0.344364 20.4286 -0.343154 -0.595043 2.7794 1.93418e-006 1.65929e-005 -2.40738 11.1162 80.5844 -12.5954 21.3405 0.919791 1.79808 -15.068 8.51623 -155.313 -79.4316 -155.18 -176.732 7.29367 73.57 -19.1038 -5.10531 7.95635 0.00324844 0.354771 0.179819 -84.3455 -84.3233 -80.7868 -23.508 4.63459e-006 -5.90926e-006 13.6473 -11.7384 5.73441 21.0225 45.2928 -25.4792 -12.3094 -5.8853 1.21775 3.50625 -28.5746 16.6257 -90 0 0 -165.329 30.4054 -11.6767 -21.0114 -5.27235 -0.258438 13.9793 -29.0436 2.33998 -90 0 0
73.5727 96.2671 2.25667 -84.4122 -85.671 -172.528 -9.94171 1.08094 -0.349845 20.4601 -0.345972 -0.597977 2.7794 1.93418e-006 1.65929e-005 -2.40173 11.0675 80.505 -12.607 21.5469 0.982221 1.85231 -15.069 8.54241 -156.013 -79.3831 -155.858 -176.714 7.23484 73.485 -19.0956 -5.13133 8.06996 0.00301393 0.393377 0.179924 -84.498 -84.4116 -80.9637 -23.508 4.63459e-006 -5.90926e-006 13.6605 -11.6859 5.7371 21.0681 45.3058 -25.5147 -12.2434 -5.88625 1.22595 3.43456 -28.5851 16.6202 -90 0 0 -165.3 30.47 -11.6613 -20.9899 -5.27325 -0.257668 13.8227 -29.0179 2.6102 -90 0 0
